<?xml version="1.0" encoding="utf-8"?>
<!-- Generator: Adobe Illustrator 14.0.0, SVG Export Plug-In . SVG Version: 6.00 Build 43363)  -->
<!DOCTYPE svg PUBLIC "-//W3C//DTD SVG 1.1//EN" "http://www.w3.org/Graphics/SVG/1.1/DTD/svg11.dtd">
<svg version="1.1" id="Layer_1" xmlns="http://www.w3.org/2000/svg" xmlns:xlink="http://www.w3.org/1999/xlink" x="0px" y="0px"
	 width="612px" height="241px" viewBox="0 0 612 241" enable-background="new 0 0 612 241" xml:space="preserve">
<g>
	<path fill="#F7F6ED" d="M203.088,25.072c3.784,0,7.568,0,11.351,0c6.672,1.965,13.523,2.562,20.81,6.433
		c8.178,4.345,22.031,15.201,25.349,0.378c0.595-2.656-0.467-2.818,1.514-3.027c2.866-0.301,1.892,3.642,1.892,7.189
		c0,19.45,0,37.521,0,57.51c0,3.715,0.742,7.613-1.515,7.944c-1.611,0.237-1.265,1.043-2.269-4.162
		c-4.918-25.481-10.742-51.388-28.755-63.185c-5.475-3.584-13.056-6.008-21.944-4.918c-4.506,0.554-10.122,3.445-14,6.433
		c-32.168,24.783-36.629,106.722-17.025,149.449c8.006,17.448,26.063,42.125,53.347,32.538c17.515-6.155,28.906-26.65,34.052-47.295
		c1.051-4.217,0.43-8.42,3.406-7.566c2.134,0.613,0.986,2.178,0.377,4.919c-6.658,29.978-23.777,55.888-54.483,58.646
		c-4.036,0-8.071,0-12.106,0c-5.792-1.49-11.743-2.502-16.647-4.539c-4.565-1.896-8.701-4.767-12.864-7.945
		c-22.663-17.318-37.837-48.74-37.837-88.157c0-44.601,19.439-81.025,51.457-96.479C192.352,27.704,197.632,26.301,203.088,25.072z"
		/>
	<path fill="#F7F6ED" d="M526.957,25.072c4.037,0,8.072,0,12.107,0c44.316,7.516,61.716,41.953,67.726,87.777
		c0,8.831,0,17.657,0,26.485c-5.409,45.543-22.356,79.546-65.833,87.021c-5.423,0-10.846,0-16.271,0
		c-5.785-1.315-11.6-2.601-16.646-4.539c-32.47-12.486-50.466-51.182-49.187-97.236C460.295,72.814,480.188,32.665,526.957,25.072z
		 M515.985,33.773c-11.714,8.463-17.651,24.951-21.565,41.619c-7.738,32.952-7.084,86.306,3.404,116.154
		c4.455,12.677,13.437,26.571,24.972,30.271c11.777,3.772,22.418-0.117,28.375-4.541c26.026-19.324,29.498-90.155,21.566-135.072
		c-2.536-14.365-7.062-29.926-14.755-40.104c-5.973-7.898-15.512-14.508-27.998-13.242
		C524.729,29.389,519.939,30.917,515.985,33.773z"/>
	<path fill="#F7F6ED" d="M5.21,222.95c0-1.134,0-2.271,0-3.405c3.657,0,7.314,0,10.972,0c0.884-61.421,0.125-126.493,0.379-187.283
		c-3.058-0.852-7.67-0.15-11.351-0.379c0-1.009,0-2.017,0-3.027c11.117,0,27.593,0,40.861,0c3.074,0,11.882-1.364,10.216,1.893
		c-1.585,3.1-7.217-0.236-10.972,1.514c0,62.426,0,124.856,0,187.283c37.02,3.229,67.165-5.092,72.265-34.051
		c0.176-1.001-0.815-11.298,2.271-10.974c2.553,0.27,1.513,7.746,1.513,10.974c0,13.016,0.306,26.36-0.377,37.456
		C82.394,222.95,43.803,222.95,5.21,222.95z"/>
	<path fill="#F7F6ED" d="M295.785,28.855c40.17,2.429,82.209-6.823,107.074,9.459c10.746,7.039,21.348,20.832,23.079,37.08
		c2.211,20.758-6.457,33.074-15.136,43.889c4.81,5.988,10.479,10.396,14.377,17.025c5.104,8.678,8.626,19.719,7.567,33.674
		c-1.685,22.211-17.022,39.625-34.429,47.293c-19.91,8.771-55.449,5.675-84.751,5.675c-3.686,0-10.626,0.354-15.134,0
		c-3.291-0.261-3.205,0.391-3.405-1.513c-0.406-3.852,7.166-1.035,10.594-1.894c0.882-61.671,0.127-124.982,0.378-187.283
		c-2.702-1.335-8.9,0.828-10.972-1.136C294.845,30.15,295.136,27.75,295.785,28.855z M334.753,33.018
		c0.255,62.051-0.503,125.108,0.381,186.527c10.422-0.646,18.53,0.887,27.619,0c35.464-3.459,51.444-53.841,34.053-88.531
		c-12.896,8.471-47.3,14.155-50.697-5.3c-4.346-24.853,33.301-22.675,49.185-15.133c11.053-24.006,3.688-54.616-11.728-68.86
		c-10.772-9.953-26.562-10.83-48.054-9.837C335.036,32.038,334.739,32.371,334.753,33.018z M362.753,109.823
		c-8.709,1.075-17.887,10.122-11.729,18.918c9.54,13.63,34.859,1.542,38.214-8.324C383.758,114.893,374.7,108.348,362.753,109.823z"
		/>
</g>
</svg>
