<?xml version="1.0" encoding="utf-8"?>
<!-- Generator: Adobe Illustrator 14.0.0, SVG Export Plug-In . SVG Version: 6.00 Build 43363)  -->
<!DOCTYPE svg PUBLIC "-//W3C//DTD SVG 1.1//EN" "http://www.w3.org/Graphics/SVG/1.1/DTD/svg11.dtd">
<svg version="1.1" id="Layer_1" xmlns="http://www.w3.org/2000/svg" xmlns:xlink="http://www.w3.org/1999/xlink" x="0px" y="0px"
	 width="612px" height="792px" viewBox="0 0 612 792" enable-background="new 0 0 612 792" xml:space="preserve">
<g>
	<path fill-rule="evenodd" clip-rule="evenodd" d="M428,294c19,0,38,0,57,0c4.563,1.23-0.093-6.76,3-7c9,0,18,0,27,0
		c4.563-1.23-0.093,6.76,3,7c33.339-0.175,51.842,14.415,55,45c3.773,36.548,1,75.929,1,121c0,18.725,0,41.322,0,61
		c0,49.923-2.234,80.881-48,86c-31.718,3.548-66.636,0-101,0c-65.926,0-135.736,0-202,0c-34.119,0-68.692,3.207-100,0
		c-27.575-2.824-51.436-22.186-55-48c-2.474-17.915,0-38.135,0-57c0-17.701,0-36.182,0-56c0-39.504-4.271-81.065,0-112
		c4.004-28.999,28.617-43.669,62-45c4.563,1.23-0.093-6.76,3-7c9,0,18,0,27,0c4.675-0.675-0.443,8.443,4,8c17.333,0,34.667,0,52,0
		c4.303-26.058-10.81-80.139,13-86c12.789-3.148,32.228,0,47,0c31.518,0,59.869,0,94,0c13.433,0,35.435-3.296,46,1
		C438.668,214.218,423.387,264.835,428,294z M250,230c-10.078,12.255-2.784,41.883-5,62c51.333,0,102.667,0,154,0
		c-1.111-20.222,2.36-45.027-2-62C350.307,228.329,296.696,228.346,250,230z M137,325c-1.273,3.575-3.262,2.633-7,2
		c-2.755,2.855-8.095,7.525-12,6c0.132,3.465-0.861,5.805-5,5c0,1.667,0,3.333,0,5c-2.483-0.15-4.15,0.517-5,2
		c1.481,0.186,0.917,2.417,1,4c-1.891-0.224-2.207,1.127-4,1c-2.774,12.983-2.3,22.772,0,36c3.732-0.608,5.249,3.633,3,6
		c5.886-0.137,6.744,7.272,10,10c2.069,1.733,7.105-0.791,6,4c2.826,0.826,2.591-1.409,5-1c-0.224,1.891,1.127,2.206,1,4
		c2.488,0.154,3.096-1.571,5-2c1.001,1.332,1.648,3.019,3,4c6.353-1.727,13.162-1.812,21-2c1.077-3.905,2.764-4.223,7-3
		c-0.118-3.451,2.017-4.649,6-4c-1.698-5.031,3.167-3.499,5-5c3.298-7.605,6.495-12.633,10-18c0.154-2.488-1.571-3.096-2-5
		c1.427-0.239,1.687-1.646,3-2c-1.118-9.1-2.787-12.813-3-22c-4.486-2.181-6.799-6.534-8-12c-4.042,0.708-5.708-0.958-5-5
		c-2.409-0.409-2.174,1.826-5,1c1.442-6.109-7.586-1.748-7-7c-3.078-0.027-7.078,2.926-7-2c-4.121,1.873-5.852,1.934-9-1
		C142.522,328.198,140.133,326.276,137,325z M419,382c-13.385-6.619-29.473-16.92-44-11c-3.656,14.48,28.263,26.946,45,35
		c20.408,9.82,40.466,22.493,56,26c15.35,3.465,26.434-0.407,33-7C481.489,412.369,447.702,396.193,419,382z M444,389
		c6.707,3.627,13.986,6.681,21,10c7.379-9.622,16.884-17.116,24-27C471.117,363.915,456.814,382.335,444,389z M494,413
		c6.002,2.998,11.998,6.002,18,9c4.54-6.46,11.029-10.971,15-18C513.005,400.234,500.956,406.455,494,413z M401,474
		c-17.958,2.503-37.111,1.944-51,10c0.461,10.127-2.967,25.188,5,31c5.259,3.836,19.835,0.342,30-1c12.002-1.585,22.906-2.854,32-4
		c24.656-3.108,47.544-4.889,60-12c1.943-9.611,0.156-23.245-4-30C449.764,464.727,425.131,470.637,401,474z M378,529
		c-21.342-2.592-45.379-7.096-60-4c-3.828,7.726-5.821,21.876-4,32c14.222,8.156,35.021,7.615,54,10c19.104,2.4,38.986,7.73,56,4
		c3.892-7.662,6.004-21.693,4-32C415.822,532.176,396.508,531.247,378,529z"/>
	<path fill-rule="evenodd" clip-rule="evenodd" d="M471,496c-16.957,2.377-33.065,5.602-50,8c14.607-12.059,30.46-22.874,45-35
		C470.431,475.236,468.612,487.722,471,496z"/>
	<path fill-rule="evenodd" clip-rule="evenodd" d="M421,476c2.456,4.211,3.984,9.35,7,13c-2.582,5.752-7.54,9.127-11,14
		c-5.336-2.664-10.664-5.336-16-8c0.533-5.467,2.393-9.607,2-16C408.183,477.183,413.986,475.986,421,476z"/>
	<path fill-rule="evenodd" clip-rule="evenodd" d="M356,484c18.211,6.456,35.215,14.119,54,20c-14.592,4.408-32.812,5.188-50,7
		C359.442,501.225,357.633,492.7,356,484z"/>
	<path fill-rule="evenodd" clip-rule="evenodd" d="M383,538c4.766,2.901,5.312,10.021,8,15c2.889-1.445,3.858-4.809,6-7
		c3.354,5.646,5.554,12.446,9,18c-12.824,3.149-24.09-3.905-37-4C372.443,551.443,379.433,546.433,383,538z"/>
	<path fill-rule="evenodd" clip-rule="evenodd" d="M361,540c3.862,4.138,5.502,10.498,8,16c-4.912-1.421-12.088-0.579-17-2
		C354.379,548.712,358.414,545.081,361,540z"/>
	<path fill-rule="evenodd" clip-rule="evenodd" d="M118,343c1.053,0.804,4.523-2.2,7,1c-3.126,14.175-0.523,20.644,5,30
		c5.434,0.566,8.665,3.335,12,6c2.856-2.812-5.118-4.386-2-8c-2.496,0.266-3.34,3.753-6,1c-0.472-4.805,4.177-4.489,6-7
		c2.182-0.182,3.182,0.818,3,3c3.153-9.18,11.243-13.424,18-19c-3.088-1.912-6.18-3.82-8-7c-4.201,0.132-2.983,5.683-5,8
		c-0.669-3.998-5.601-3.732-6-8c3.248-2.085,6.518-4.149,10-6c2.775,0.225,2.829,3.171,5,4c0.189-6.847-7.323-4.031-10-6
		c-1.172,0.162-0.843,1.823-1,3c-6.888-1.284-11.987-3.215-18-3c10.705-7.847,37.459-7.468,36,11c2.152-1.514,4.899-2.434,6-5
		c6.156,3.437,12.39,11.931,8,20c0.622,2.099,4.178-3.699,4,2c-2.714,1.428-7.174,5.801-6,14c0.691,3.135,2.667,1.304,5,1
		c-4.115,13.921-16.052,25.231-30,26c5.548-5.452,12.711-9.289,16-17c-0.14-2.86-4.171-1.829-7-2c0.442-3.775-1.972-4.695-3-7
		c-4.589,0.259-4.832,1.063-9,0c-6.677,5.011-4.585,13.823,2,17c-0.408,2.004-2.477,7.417,0,9c-37.397,8.323-54.637-40.369-32-63
		C121.347,339.148,118.873,341.257,118,343z"/>
</g>
</svg>
